<?xml version="1.0" standalone="no"?>
<!DOCTYPE svg PUBLIC "-//W3C//DTD SVG 20010904//EN"
 "http://www.w3.org/TR/2001/REC-SVG-20010904/DTD/svg10.dtd">
<svg version="1.0" xmlns="http://www.w3.org/2000/svg"
 width="640.000000pt" height="640.000000pt" viewBox="0 0 640.000000 640.000000"
 preserveAspectRatio="xMidYMid meet">
<metadata>
Created by potrace 1.14, written by Peter Selinger 2001-2017
</metadata>
<g transform="translate(0.000000,640.000000) scale(0.100000,-0.100000)"
fill="#000000" stroke="none">
<path d="M3128 6025 c-2 -2 -32 -5 -68 -6 -394 -14 -836 -210 -1145 -506 -208
-199 -382 -474 -466 -737 -18 -56 -36 -105 -40 -109 -4 -5 -56 31 -115 80 -60
48 -117 95 -128 103 -10 8 -23 20 -30 25 -6 6 -36 30 -66 55 -30 25 -66 55
-80 66 -14 12 -92 77 -175 144 -82 67 -159 129 -170 139 -97 81 -355 291 -359
291 -6 0 0 -1100 7 -1125 3 -11 10 -55 17 -98 25 -164 110 -418 182 -540 15
-26 28 -50 28 -52 0 -9 103 -150 148 -203 43 -51 156 -155 236 -217 21 -16
116 -91 210 -166 95 -75 343 -270 551 -433 209 -163 387 -302 395 -309 8 -7
53 -42 100 -79 97 -75 97 -75 125 -258 14 -94 14 -348 -1 -447 -4 -32 -2 -43
8 -44 17 -1 1779 -1 1796 0 7 1 11 4 9 9 -9 14 -20 167 -21 267 0 133 12 241
37 338 12 45 19 52 253 234 132 103 256 200 275 215 19 15 93 72 164 128 72
55 137 106 145 113 8 7 154 122 325 257 404 320 496 411 608 601 99 169 174
382 207 589 6 41 14 86 17 100 6 26 14 1120 9 1120 -2 0 -165 -129 -363 -287
-198 -159 -375 -299 -393 -313 -18 -14 -41 -32 -50 -40 -98 -82 -341 -272
-344 -269 -2 2 -20 54 -40 114 -149 451 -485 838 -911 1052 -169 85 -389 157
-545 177 -19 3 -55 7 -80 11 -53 6 -257 14 -262 10z m177 -159 c50 -3 99 -7
110 -10 11 -2 41 -7 68 -10 26 -4 58 -11 72 -16 14 -5 25 -8 25 -6 0 2 21 -3
48 -11 26 -8 56 -16 67 -18 33 -7 195 -74 260 -108 320 -167 579 -430 737
-748 72 -145 150 -382 132 -398 -5 -5 -99 -80 -209 -167 -110 -87 -205 -163
-211 -169 -6 -5 -26 -22 -45 -37 -19 -14 -94 -74 -167 -132 -73 -58 -137 -106
-141 -106 -3 0 -45 44 -91 98 -47 53 -97 111 -111 127 -83 92 -199 231 -199
237 0 13 168 119 228 143 199 81 412 72 602 -25 22 -11 40 -17 40 -13 0 27
-43 152 -66 191 -40 68 -111 134 -179 167 -42 21 -87 57 -150 120 -121 123
-224 189 -381 243 -274 94 -640 34 -918 -152 -191 -128 -200 -145 -382 -690
-102 -304 -152 -442 -160 -438 -6 4 -31 23 -54 42 -24 19 -136 111 -249 203
-113 93 -217 178 -231 190 -14 12 -45 38 -70 57 -25 19 -51 40 -58 48 -8 7
-29 24 -47 38 l-33 25 24 92 c47 175 122 338 227 497 28 41 53 77 56 80 3 3
24 28 46 55 111 141 305 301 482 398 222 123 506 201 743 207 35 1 66 3 68 5
2 2 9 2 15 0 7 -2 53 -6 102 -9z m2660 -878 l0 -250 -490 -387 c-269 -213
-598 -473 -730 -577 -132 -104 -247 -194 -255 -201 -8 -7 -78 -62 -155 -122
-185 -147 -331 -262 -437 -346 l-86 -68 56 -53 c31 -29 59 -51 62 -49 3 2 100
78 215 170 116 91 224 176 240 189 75 59 1157 914 1175 929 8 6 47 37 85 67
39 30 123 97 188 148 65 52 120 92 123 89 7 -7 -26 -214 -46 -293 -19 -74 -44
-154 -59 -189 -39 -91 -93 -194 -139 -265 -52 -80 -200 -239 -282 -302 -58
-44 -354 -278 -375 -296 -11 -10 -103 -83 -205 -162 -102 -80 -192 -150 -200
-157 -8 -6 -73 -57 -145 -113 -71 -55 -137 -106 -145 -113 -8 -7 -69 -54 -134
-105 -104 -81 -121 -91 -135 -79 -9 8 -90 74 -181 148 -91 73 -167 136 -170
139 -3 3 -27 23 -55 46 -73 59 -453 371 -500 409 -22 19 -98 81 -170 140 -71
59 -139 114 -150 123 -11 9 -108 89 -215 176 -107 88 -203 166 -212 175 -17
15 -10 40 122 435 77 231 154 444 172 474 75 132 255 273 418 327 184 61 397
69 546 21 139 -45 273 -148 362 -278 18 -26 32 -49 32 -51 0 -2 -26 -7 -57
-11 -66 -8 -210 -54 -285 -92 -115 -58 -242 -156 -284 -218 -14 -22 -14 -29
-3 -45 14 -20 264 -310 416 -484 l53 -59 -260 -208 -259 -207 47 -45 c26 -24
52 -47 58 -51 9 -5 292 210 457 349 11 9 85 68 165 132 197 156 1042 830 1067
851 11 9 153 122 315 251 162 129 326 260 365 292 38 31 72 54 75 51 3 -2 5
-117 5 -255z m-5412 168 c56 -46 196 -161 312 -256 116 -94 219 -179 230 -189
11 -9 220 -180 465 -381 245 -200 450 -369 457 -375 13 -11 8 -7 318 -261 127
-103 232 -190 235 -193 4 -5 84 -71 180 -148 60 -49 780 -639 800 -656 24 -21
163 -135 204 -167 10 -8 38 -31 61 -50 23 -20 70 -58 104 -85 l62 -49 -23 -20
c-40 -36 -249 -197 -263 -203 -13 -4 -68 36 -455 337 -195 151 -899 696 -1015
785 -50 39 -474 365 -941 727 l-849 656 1 304 c1 166 2 304 3 306 3 7 19 -5
114 -82z m217 -980 c135 -104 283 -219 330 -255 47 -36 117 -90 156 -121 39
-30 84 -65 100 -77 29 -23 434 -336 489 -378 47 -37 547 -423 579 -448 16 -12
70 -54 120 -93 50 -39 299 -232 554 -428 255 -197 460 -362 455 -366 -44 -43
-339 -260 -353 -260 -13 0 -281 198 -395 292 -5 5 -68 54 -140 109 -71 55
-137 106 -145 112 -31 25 -178 139 -260 203 -47 36 -92 71 -100 77 -8 7 -152
120 -320 251 -168 131 -320 250 -339 264 -19 15 -82 65 -141 112 -58 47 -124
99 -145 115 -21 17 -72 57 -114 90 -42 33 -78 62 -81 65 -3 3 -23 18 -45 34
-80 58 -233 222 -290 309 -109 168 -188 376 -223 585 l-9 52 36 -27 c20 -15
146 -113 281 -217z m1911 -2232 c131 -102 239 -187 239 -190 0 -2 -105 -4
-234 -4 l-235 0 1 118 c0 111 -9 238 -19 255 -13 22 30 -10 248 -179z m1244
-10 c-2 -97 -6 -178 -8 -180 -2 -3 -103 -3 -223 -2 l-219 3 149 115 c82 63
183 143 225 177 42 34 77 62 78 62 0 1 0 -78 -2 -175z"/>
<path d="M2293 1270 c-16 -4 -19 -16 -20 -77 l0 -73 918 0 919 0 0 75 c0 41
-3 75 -7 76 -45 3 -1797 3 -1810 -1z"/>
<path d="M2689 878 c-9 -107 59 -265 154 -358 84 -83 214 -139 335 -144 272
-11 503 187 537 462 l6 52 -79 0 -79 0 -5 -48 c-11 -111 -97 -229 -205 -280
-50 -23 -71 -27 -153 -27 -82 0 -102 4 -150 27 -64 31 -139 101 -169 158 -12
23 -27 70 -33 105 l-13 65 -72 0 c-51 0 -73 -4 -74 -12z"/>
</g>
</svg>
